<svg width="20" height="20" viewBox="0 0 20 20" fill="none" xmlns="http://www.w3.org/2000/svg">
<path d="M19.9929 10.2391C19.9943 9.55895 19.9354 8.87992 19.8168 8.20972H10.2083V12.0553H15.7108C15.598 12.6697 15.3594 13.2553 15.0095 13.7768C14.6595 14.2984 14.2053 14.745 13.6745 15.0898V17.5851H16.9571C17.9595 16.6372 18.7477 15.4935 19.2706 14.2281C19.7936 12.9626 20.0397 11.6037 19.9929 10.2391Z" fill="#4285F4"/>
<path d="M10.1859 19.9962C12.6679 20.0647 15.083 19.2025 16.9389 17.5856L13.6562 15.0903C12.8657 15.5863 11.9703 15.8992 11.0379 16.0054C10.1056 16.1115 9.16083 16.008 8.27537 15.7028C7.38991 15.3976 6.58702 14.8987 5.92764 14.2439C5.26826 13.5891 4.76972 12.7957 4.46987 11.9238H1.08252V14.4958C1.93086 16.1495 3.23136 17.5396 4.83885 18.5109C6.44635 19.4822 8.29758 19.9964 10.1859 19.9962Z" fill="#34A853"/>
<path d="M4.46723 11.9153C4.04047 10.6751 4.04047 9.33192 4.46723 8.09171V5.51709H1.08328C0.370946 6.9086 0 8.44396 0 10.0008C0 11.5577 0.370946 13.0931 1.08328 14.4846L4.46723 11.9153Z" fill="#FBBC04"/>
<path d="M10.1988 3.95424C11.6531 3.93101 13.0586 4.46857 14.1124 5.45116L17.0252 2.59995C15.1774 0.902579 12.7317 -0.0287731 10.1995 0.000677757C8.30855 -0.000314952 6.45452 0.514051 4.84455 1.48632C3.23458 2.45858 1.93207 3.85046 1.08252 5.50647L4.47123 8.07842C4.86676 6.89064 5.63189 5.85412 6.65917 5.11443C7.68645 4.37473 8.92428 3.96901 10.1988 3.95424Z" fill="#EA4335"/>
</svg>
