<svg width="17" height="14" viewBox="0 0 17 14" fill="none" xmlns="http://www.w3.org/2000/svg">
<path d="M1.66667 13.3333C1.20833 13.3333 0.816111 13.1703 0.49 12.8442C0.163333 12.5175 0 12.125 0 11.6667V1.66667C0 1.20833 0.163333 0.816111 0.49 0.49C0.816111 0.163333 1.20833 0 1.66667 0H15C15.4583 0 15.8508 0.163333 16.1775 0.49C16.5036 0.816111 16.6667 1.20833 16.6667 1.66667V11.6667C16.6667 12.125 16.5036 12.5175 16.1775 12.8442C15.8508 13.1703 15.4583 13.3333 15 13.3333H1.66667ZM8.33333 7.35417C8.40278 7.35417 8.47556 7.34361 8.55167 7.3225C8.62833 7.30194 8.70139 7.27083 8.77083 7.22917L14.6667 3.54167C14.7778 3.47222 14.8611 3.38556 14.9167 3.28167C14.9722 3.17722 15 3.0625 15 2.9375C15 2.65972 14.8819 2.45139 14.6458 2.3125C14.4097 2.17361 14.1667 2.18056 13.9167 2.33333L8.33333 5.83333L2.75 2.33333C2.5 2.18056 2.25694 2.17694 2.02083 2.3225C1.78472 2.46861 1.66667 2.67361 1.66667 2.9375C1.66667 3.07639 1.69444 3.19778 1.75 3.30167C1.80556 3.40611 1.88889 3.48611 2 3.54167L7.89583 7.22917C7.96528 7.27083 8.03833 7.30194 8.115 7.3225C8.19111 7.34361 8.26389 7.35417 8.33333 7.35417Z" fill="#616161"/>
</svg>
