<svg width="19" height="13" viewBox="0 0 19 13" fill="none" xmlns="http://www.w3.org/2000/svg">
<path d="M9.02083 10C10.0625 10 10.9481 9.63556 11.6775 8.90667C12.4064 8.17722 12.7708 7.29167 12.7708 6.25C12.7708 5.20833 12.4064 4.32278 11.6775 3.59333C10.9481 2.86444 10.0625 2.5 9.02083 2.5C7.97917 2.5 7.09361 2.86444 6.36417 3.59333C5.63528 4.32278 5.27083 5.20833 5.27083 6.25C5.27083 7.29167 5.63528 8.17722 6.36417 8.90667C7.09361 9.63556 7.97917 10 9.02083 10ZM9.02083 8.5C8.39583 8.5 7.86472 8.28111 7.4275 7.84333C6.98972 7.40611 6.77083 6.875 6.77083 6.25C6.77083 5.625 6.98972 5.09361 7.4275 4.65583C7.86472 4.21861 8.39583 4 9.02083 4C9.64583 4 10.1772 4.21861 10.615 4.65583C11.0522 5.09361 11.2708 5.625 11.2708 6.25C11.2708 6.875 11.0522 7.40611 10.615 7.84333C10.1772 8.28111 9.64583 8.5 9.02083 8.5ZM9.02083 12.5C7.09028 12.5 5.32639 11.9897 3.72917 10.9692C2.13194 9.94806 0.923611 8.56944 0.104167 6.83333C0.0625 6.76389 0.0347223 6.67694 0.0208334 6.5725C0.00694452 6.46861 0 6.36111 0 6.25C0 6.13889 0.00694452 6.03111 0.0208334 5.92667C0.0347223 5.82278 0.0625 5.73611 0.104167 5.66667C0.923611 3.93056 2.13194 2.55222 3.72917 1.53167C5.32639 0.510555 7.09028 0 9.02083 0C10.9514 0 12.7153 0.510555 14.3125 1.53167C15.9097 2.55222 17.1181 3.93056 17.9375 5.66667C17.9792 5.73611 18.0069 5.82278 18.0208 5.92667C18.0347 6.03111 18.0417 6.13889 18.0417 6.25C18.0417 6.36111 18.0347 6.46861 18.0208 6.5725C18.0069 6.67694 17.9792 6.76389 17.9375 6.83333C17.1181 8.56944 15.9097 9.94806 14.3125 10.9692C12.7153 11.9897 10.9514 12.5 9.02083 12.5Z" fill="#616161"/>
</svg>
